<svg width="40" height="8" viewBox="0 0 40 8" fill="none" xmlns="http://www.w3.org/2000/svg">
<path d="M1.688 0.0799997V3.332H5.18V0.0799997H6.836V8H5.18V4.664H1.688V8H0.032V0.0799997H1.688ZM12.3591 0.0799997V8H10.7031V0.0799997H12.3591ZM22.1459 1.412H17.8739V3.416H21.2459V4.76H17.8739V8H16.2179V0.0799997H22.1459V1.412ZM27.0216 6.668H31.1976V8H25.3656V0.0799997H27.0216V6.668ZM39.2561 0.0799997L36.4481 5.036V8H34.7921V5.036L31.9841 0.0799997H33.7481L35.0201 2.444L35.6201 3.692L36.2321 2.444L37.5041 0.0799997H39.2561Z" fill="black"/>
</svg>
